<svg width="128" height="128" viewBox="0 0 128 128" fill="none" xmlns="http://www.w3.org/2000/svg">
    <mask id="a" style="mask-type:alpha" maskUnits="userSpaceOnUse" x="17" y="17" width="88" height="94">
        <path fill-rule="evenodd" clip-rule="evenodd" d="M72.403 20.195a23.16 23.16 0 0 0-23.164 0l-20.3 11.72a23.16 23.16 0 0 0-11.583 20.062v23.441a23.16 23.16 0 0 0 11.582 20.06l20.3 11.722a23.17 23.17 0 0 0 18.925 1.909 28.3 28.3 0 0 1-5.869-10.226 26.6 26.6 0 0 1-.995-7.224c0-14.65 11.877-26.528 26.529-26.528a26.4 26.4 0 0 1 16.458 5.721V51.977a23.16 23.16 0 0 0-11.582-20.061z" fill="#fdb222"/>
    </mask>
    <g mask="url(#a)">
        <path d="M49.239 20.195a23.16 23.16 0 0 1 23.164 0l20.3 11.72a23.16 23.16 0 0 1 11.583 20.062v23.441a23.16 23.16 0 0 1-11.582 20.06l-20.3 11.722a23.17 23.17 0 0 1-23.165 0l-20.3-11.721a23.16 23.16 0 0 1-11.583-20.06V51.976a23.16 23.16 0 0 1 11.582-20.061z" fill="#ffb800"/>
        <path d="m29.163 44.793 4.41 2.545 20.723 11.965c1.955 1.129 3.54 3.874 3.54 6.132s-1.585 3.172-3.54 2.044L39.94 59.19c-1.244-.719-2.252-.137-2.252 1.3s1.008 3.184 2.252 3.902l14.356 8.288c1.955 1.13 3.54 3.874 3.54 6.132s-1.585 3.173-3.54 2.044L39.94 72.569c-1.244-.718-2.252-.136-2.252 1.3 0 1.437 1.008 3.184 2.252 3.903l15.221 8.787c1.477.853 2.675 2.927 2.675 4.633v5.087L43.5 88.002l-14.337-8.678z" fill="#fffaef"/>
        <path fill-rule="evenodd" clip-rule="evenodd" d="M64.682 65.649c0-2.56 1.796-5.67 4.012-6.95l16.257-9.386 2.73-1.576 3.135-1.81.118-.066c1.557-.847 2.892-.541 3.516.635q.148.276.24.617.137.501.138 1.13v30.112L64.682 95.76V65.648M81.185 78.1c2.585-1.492 4.68-5.122 4.68-8.107v-3.81c0-5.118-3.592-7.192-8.023-4.633l-4.587 2.647c-.369.214-.668.732-.668 1.159v16.937c0 .426.3.599.668.385z" fill="#fffaef"/>
        <path d="M68.15 27.825a14.67 14.67 0 0 0-14.659 0L33.405 39.417a14.65 14.65 0 0 0-7.33 12.689v23.182a14.65 14.65 0 0 0 7.33 12.69l20.086 11.59a14.67 14.67 0 0 0 14.66 0l20.086-11.59a14.65 14.65 0 0 0 7.33-12.69V52.106c0-1.73-.305-3.416-.877-4.993q.137.501.138 1.13v30.112L64.682 95.76v-.658c-2.217.73-4.593.814-6.846.252v.925L43.5 88.002l-14.337-8.678V44.793l4.41 2.545c-.806-1.06-.569-2.696.711-3.418l21.986-12.4a9.27 9.27 0 0 1 9.104 0l21.984 12.4c.232.131.43.292.593.474h2.984v1.467c1.556-.847 2.89-.541 3.515.635a14.65 14.65 0 0 0-6.213-7.08z" fill="#fffaef"/>
        <path fill-rule="evenodd" clip-rule="evenodd" d="M87.95 44.394c.679.754.768 1.872.268 2.723-.135.23-.314.441-.537.62l-2.73 1.576-.86.486h6.844v-5.405z" fill="#fffaef"/>
    </g>
    <rect x="65.589" y="69.588" width="44.489" height="44.489" rx="22.245" fill="#c98920"/>
    <path d="M79.1 84.132h17.02c2.696 0 5.123 0 5.834 1.053s.432 2.638-.123 5.811l-.8 4.423c-.504 2.79-.756 4.184-1.639 5.004s-2.131.82-4.629.82h-8.485c-4.462 0-6.693 0-8.08-1.667-1.385-1.667-1.487-3.438-1.487-8.804v-4.746z" fill="#fffaef"/>
    <path d="M72.434 81.565s4.236 0 5.244 1.717c.773 1.316 2.522 6.496 2.522 7.37" stroke="#fffaef" stroke-width="4.278" stroke-linecap="round" stroke-linejoin="round"/>
    <path fill-rule="evenodd" clip-rule="evenodd" d="M77.93 105.397a2.823 2.823 0 1 1 5.646 0 2.823 2.823 0 0 1-5.646 0m14.372 0a2.823 2.823 0 1 1 5.647 0 2.823 2.823 0 0 1-5.647 0" fill="#fffaef"/>
</svg>
