<svg width="20" height="20" viewBox="0 0 20 20" fill="none" xmlns="http://www.w3.org/2000/svg">
    <path d="M7.695 1.333a4.62 4.62 0 0 1 4.617 0l4.046 2.336a4.62 4.62 0 0 1 2.308 3.998v4.672c0 1.65-.88 3.174-2.308 3.999l-4.046 2.336a4.62 4.62 0 0 1-4.617 0l-4.046-2.336a4.62 4.62 0 0 1-2.309-3.999V7.667c0-1.65.88-3.173 2.309-3.998z" fill="#fdb222"/>
    <path fill-rule="evenodd" clip-rule="evenodd" d="M8.542 2.854a2.92 2.92 0 0 1 2.922 0l4.004 2.31a2.92 2.92 0 0 1 1.46 2.53v4.62a2.92 2.92 0 0 1-1.46 2.529l-4.004 2.31a2.92 2.92 0 0 1-2.922 0l-4.003-2.31a2.92 2.92 0 0 1-1.461-2.53v-4.62a2.92 2.92 0 0 1 1.46-2.53zm-.724 5.763L4.714 6.866a.462.462 0 0 1 0-.804L9.096 3.59a1.85 1.85 0 0 1 1.815 0l4.382 2.472a.462.462 0 0 1 0 .804l-.648.365v.002l-3.072 1.774c-.442.255-.8.875-.8 1.385v5.87a2.46 2.46 0 0 1-1.365.051v-.83c0-.34-.238-.753-.533-.923l-3.033-1.75a1 1 0 0 1-.45-.778c0-.287.202-.402.45-.26l2.86 1.653c.39.225.706.042.706-.408s-.316-.997-.705-1.222l-2.861-1.652a1 1 0 0 1-.45-.778c0-.286.202-.402.45-.259l2.86 1.652c.39.225.706.043.706-.407s-.316-.997-.705-1.222zm6.244 4.257c.515-.297.933-1.02.933-1.616v-.76c0-1.02-.716-1.433-1.6-.923l-.913.528a.3.3 0 0 0-.134.23v3.377c0 .085.06.12.134.077z" fill="#fffaef"/>
</svg>
